<?xml version="1.0" encoding="utf-8"?>
<!-- Generator: Adobe Illustrator 25.0.0, SVG Export Plug-In . SVG Version: 6.00 Build 0)  -->
<svg version="1.1" id="Layer_1" xmlns="http://www.w3.org/2000/svg" xmlns:xlink="http://www.w3.org/1999/xlink" x="0px" y="0px"
	 viewBox="0 0 180 180" style="enable-background:new 0 0 180 180;" xml:space="preserve">
<style type="text/css">
	.st0{display:none;}
	.st1{display:inline;}
	.st2{display:inline;stroke:#FFFFFF;stroke-width:0.4;stroke-miterlimit:1;}
	.st3{stroke:#FFFFFF;stroke-width:0.5;stroke-miterlimit:1;}
	.st4{fill:#FEFEFE;}
	.st5{fill:#040404;}
	.st6{fill:#FAFAFA;}
	.st7{fill:#090909;}
	.st8{fill:#060606;}
	.st9{fill:#070707;}
	.st10{fill:#2B2B2B;}
	.st11{fill:#181818;}
	.st12{fill:#2A2A2A;}
	.st13{fill:#272727;}
	.st14{fill:#2D2D2D;}
	.st15{fill:#303030;}
	.st16{fill:#363636;}
	.st17{fill:#0F0F0F;}
	.st18{fill:#DADADA;}
	.st19{display:none;fill:#FDFDFD;}
	.st20{display:none;fill:#2B6545;}
	.st21{display:none;fill:#FEFEFE;}
	.st22{fill:#97C83E;}
	.st23{fill:#276242;}
	.st24{fill:#04A76A;}
</style>
<g transform="translate(0.000000,180.000000) scale(0.100000,-0.100000)" class="st0">
	<path class="st1" d="M874,1623c-102-351-154-517-167-530c-8-9-142-53-297-99c-155-45-284-85-288-88c-3-3-3-9,1-12
		c10-10,502-152,505-145c1,3,28,67,60,140l57,135l145,91c79,51,146,97,148,103c2,7-22,99-53,204c-75,256-75,258-85,258
		C895,1680,883,1654,874,1623z"/>
	<path class="st2" d="M1008,1152c-120-76-224-144-231-152c-8-8-53-107-100-220C544,465,556,496,577,504c9,4,115,69,235,144l217,137
		l101,240c56,132,104,246,107,253c3,6,1,12-3,12C1229,1289,1127,1227,1008,1152z M958,957c30-28,29-77-3-107c-35-33-81-31-112,4
		c-27,32-29,62-7,94C867,993,914,997,958,957z"/>
	<path class="st1" d="M1115,906l-60-144l-147-92c-82-51-148-95-148-99c0-13,129-443,134-449c3-3,9-3,12,0c3,4,43,133,88,288
		c46,155,90,289,99,297c8,9,142,53,297,99c155,45,284,85,288,88c3,3,3,9,0,12c-8,8-469,144-488,144C1180,1050,1155,1000,1115,906z"
		/>
	<g class="st1">
		<path d="M460,1480c0-33-4-60-9-60s-28,7-51,15s-47,15-53,15c-9,0-2-429,8-438c2-3,16-1,31,2l27,7l-5,174l-5,174l31-13l31-12l3-152
			l3-152l27,6c15,4,30,8,33,10s4,64,1,138l-5,135l94-30c106-32,129-35,129-15c0,8,2,21,5,28c4,11-23,23-109,49
			c-112,33-114,34-118,65l-4,32l46-14c25-8,81-25,125-38c43-14,80-24,82-22c2,1,5,16,9,32l6,30l-159,47c-87,26-161,47-165,47
			C463,1540,460,1513,460,1480z"/>
		<path d="M1157,1492l-149-46l6-30c4-16,7-31,9-32c2-2,58,14,125,35l122,39v-32v-31l-115-34c-87-26-114-38-110-49c3-7,5-20,5-28
			c0-20,23-17,129,15l93,30l-3-136l-4-136l27-8c15-4,29-4,32-1s6,71,6,152v147l33,10l34,10l-5-173l-5-173l27-7c15-3,29-5,31-2
			c10,9,17,438,8,438c-6,0-30-7-53-15s-46-15-51-15s-9,27-9,60c0,51-3,60-17,59C1313,1538,1238,1517,1157,1492z"/>
		<path d="M347,638c-9-206-9-308,2-308c5,0,28,7,51,15s46,15,51,15s9-20,9-45s3-45,8-45c4-1,78,21,165,47l158,48l-7,30
			c-3,16-7,31-8,32s-38-9-81-23c-183-56-173-54-168-33c4,13,35,28,119,56l115,38l-7,30c-3,16-7,31-8,32c-2,2-49-13-106-32
			s-106-35-108-35s-2,63-1,139c2,77,2,141-1,144c-3,2-17,7-32,11l-26,6l-4-159c-1-88-5-162-8-164c-3-3-17-8-31-12l-25-6l4,177
			c5,184,3,193-39,194C355,790,352,768,347,638z"/>
		<path d="M1401,781c-11-7-13-43-9-185c2-97,1-176-3-176s-19,4-33,10l-26,10v160v160l-27-6c-16-4-31-9-35-11s-5-67-1-143
			c3-77,4-140,2-140c-3,0-52,16-109,35s-104,34-106,32c-1-1-5-16-8-32l-7-30l116-38c75-25,115-43,115-53c0-20-11-18-135,21
			c-60,19-110,33-111,32s-5-16-8-32l-7-31l155-47c85-26,159-47,165-47s11,20,11,45s4,45,9,45s28-7,51-15s46-15,51-15
			c11,0,11,102,2,308c-5,130-8,152-22,152C1422,790,1409,786,1401,781z"/>
	</g>
	<g class="st1">
		<path class="st3" d="M460,1480c0-33-4-60-9-60s-28,7-51,15s-47,15-53,15c-9,0-2-429,8-438c2-3,16-1,31,2l27,7l-5,174l-5,174l31-13
			l31-12l3-152l3-152l27,6c15,4,30,8,33,10s4,64,1,138l-5,135l94-30c106-32,129-35,129-15c0,8,2,21,5,28c4,11-23,23-109,49
			c-112,33-114,34-118,65l-4,32l46-14c25-8,81-25,125-38c43-14,80-24,82-22c2,1,5,16,9,32l6,30l-159,47c-87,26-161,47-165,47
			C463,1540,460,1513,460,1480z"/>
		<path class="st3" d="M1157,1492l-149-46l6-30c4-16,7-31,9-32c2-2,58,14,125,35l122,39v-32v-31l-115-34c-87-26-114-38-110-49
			c3-7,5-20,5-28c0-20,23-17,129,15l93,30l-3-136l-4-136l27-8c15-4,29-4,32-1s6,71,6,152v147l33,10l34,10l-5-173l-5-173l27-7
			c15-3,29-5,31-2c10,9,17,438,8,438c-6,0-30-7-53-15s-46-15-51-15s-9,27-9,60c0,51-3,60-17,59C1313,1538,1238,1517,1157,1492z"/>
		<path class="st3" d="M347,638c-9-206-9-308,2-308c5,0,28,7,51,15s46,15,51,15s9-20,9-45s3-45,8-45c4-1,78,21,165,47l158,48l-7,30
			c-3,16-7,31-8,32s-38-9-81-23c-183-56-173-54-168-33c4,13,35,28,119,56l115,38l-7,30c-3,16-7,31-8,32c-2,2-49-13-106-32
			s-106-35-108-35s-2,63-1,139c2,77,2,141-1,144c-3,2-17,7-32,11l-26,6l-4-159c-1-88-5-162-8-164c-3-3-17-8-31-12l-25-6l4,177
			c5,184,3,193-39,194C355,790,352,768,347,638z"/>
		<path class="st3" d="M1401,781c-11-7-13-43-9-185c2-97,1-176-3-176s-19,4-33,10l-26,10v160v160l-27-6c-16-4-31-9-35-11
			s-5-67-1-143c3-77,4-140,2-140c-3,0-52,16-109,35s-104,34-106,32c-1-1-5-16-8-32l-7-30l116-38c75-25,115-43,115-53
			c0-20-11-18-135,21c-60,19-110,33-111,32s-5-16-8-32l-7-31l155-47c85-26,159-47,165-47s11,20,11,45s4,45,9,45s28-7,51-15
			s46-15,51-15c11,0,11,102,2,308c-5,130-8,152-22,152C1422,790,1409,786,1401,781z"/>
	</g>
</g>
<g class="st0">
	<g class="st1">
		<path class="st4" d="M176.6,90.5c0,27.3,0,54.6,0.1,81.9c0,2.5-0.5,3-3,3c-54.6-0.1-109.1-0.1-163.7,0c-2.5,0-3-0.5-3-3
			C7,117.8,7,63.2,6.9,8.6c0-2.5,0.5-3,3-3c54.6,0.1,109.1,0.1,163.7,0c2.5,0,3,0.5,3,3C176.5,35.9,176.6,63.2,176.6,90.5z
			 M18.8,100.5c0,18.6,0.1,37.1-0.1,55.7c0,3.4,1.2,4.3,4.1,4.4c4.5,0,9,0,13.5,0c19.5-0.2,39-0.4,58.5-0.2
			c15.7,0.2,31.4,0.3,47.1,0.2c12.6-0.1,20.8-7.3,20.7-18.7c-0.1-9.6,0.3-19.1,0.4-28.7c0.1-9.6-0.9-19.3-0.7-29
			c0.3-14.3,0.8-28.6,0.7-42.9c0-6.6-0.3-13.2-0.3-19.8c0-3.6-1.1-5.7-5.2-4.9c-4.6,0.9-9.2,0-13.9,0c-33,0-66.1,0-99.1,0
			c-5.2,0-10.3-0.5-15.4,2.3c-4.4,2.4-9.5,7.1-9.4,11.7c0.1,7.8-1.1,15.6-1,23.4C19,69.6,18.8,85,18.8,100.5z"/>
		<path class="st5" d="M18.8,100.5c0-15.5,0.2-30.9-0.1-46.4c-0.1-7.8,1.1-15.6,1-23.4c-0.1-4.6,5.1-9.3,9.4-11.7
			c5.1-2.8,10.2-2.3,15.4-2.3c33-0.1,66.1,0,99.1,0c4.6,0,9.3,0.9,13.9,0c4.1-0.8,5.2,1.3,5.2,4.9c0,6.6,0.3,13.2,0.3,19.8
			c0.1,14.3-0.4,28.6-0.7,42.9c-0.2,9.6,0.8,19.3,0.7,29c-0.1,9.6-0.5,19.1-0.4,28.7c0.1,11.4-8.1,18.6-20.7,18.7
			c-15.7,0.1-31.4-0.1-47.1-0.2c-19.5-0.2-39,0-58.5,0.2c-4.5,0-9,0-13.5,0c-2.9,0-4.2-0.9-4.1-4.4
			C18.9,137.6,18.8,119.1,18.8,100.5z M153.5,84.6c0-18.7-0.1-37.4,0.1-56.1c0-2.5-0.4-3.3-3.1-3.3c-37.4,0.1-74.8,0.1-112.2,0.1
			c-7.2,0-10.9,3.7-10.9,11c0,37.4,0,74.8-0.1,112.2c0,2.2,0.3,3.1,2.9,3.1c37.2-0.1,74.5-0.1,111.7-0.1c8.1,0,11.5-3.5,11.6-11.6
			C153.5,121.4,153.5,103,153.5,84.6z"/>
		<path class="st6" d="M153.5,84.6c0,18.4,0,36.8,0,55.2c0,8.1-3.4,11.6-11.6,11.6c-37.2,0-74.5,0-111.7,0.1c-2.6,0-2.9-0.9-2.9-3.1
			c0.1-37.4,0-74.8,0.1-112.2c0-7.2,3.7-11,10.9-11c37.4,0,74.8,0,112.2-0.1c2.7,0,3.1,0.8,3.1,3.3
			C153.4,47.2,153.5,65.9,153.5,84.6z M53.2,133.3c0,0,0.1,0.1,0.1,0.1c-0.2,0.3-0.6,0.8-0.5,0.9c1.4,1.5,3,1,4.6,0.3
			c1.6-0.8,1.8-2.4,1.7-4c-0.2-1.7-1.1-2.8-2.8-3.3c-2.3-0.6-3.9,0.5-5.5,1.9c0.4-1.9-3.2-2.6-1.5-4.9c0.5-0.7,2-0.7,1.3-2.1
			c-0.4-0.7-1.2-0.6-1.9-0.5c-1.3,0.2-1.8,1.1-2,2.3c-0.5,3-0.5,5.9-0.1,8.8c0.1,0.9-0.5,2.2,1,2.3c1.5,0.1,1.1-1.2,1.2-2.2
			c0.1-1.5-0.6-3.5,2-3.8c0.1,1.2,0.1,2.5,0.4,3.7C51.5,133.8,52.2,134.6,53.2,133.3z M132.9,134.4c2.3-1.3,4.1,1.1,6.5,0.8
			c3.8-0.5,1.9-3.1,2.2-4.7c0.3-1.5,0.7-2.9-2.1-3.4c-5.1-0.8-5.5,2.9-6.9,5.9c-2,0-3.4-0.5-3-3.1c0.3-1.8,0.1-3.6,0.1-5.4
			c0-0.8-0.2-1.4-1.1-1.5c-1,0-1,0.7-1.1,1.4c0,2,0,3.9,0,5.9C127.6,135.6,127.6,135.6,132.9,134.4z M77.7,93.6
			c-2.4,4.8-5,6.1-9.9,5.4c-4.6-0.7-7.3-3.6-8-8.4c-0.8-5.3,1.4-10,5.7-12.1c3.5-1.7,8-0.8,10.8,2.2c2,2,5.9,1.8,8.2-1
			c1.8-2.2-0.7-3.5-1.8-4.7c-5.5-6-17.9-6.8-24.8-1.8c-6.8,5-9,16.7-4.8,24.9c3.9,7.3,12.9,10.7,21.8,8.2c7.3-2,11.5-9.1,12.3-17.9
			c0.2-1.9-1-1.6-2.1-1.6c-4.5,0-9,0-13.5,0c-0.9,0-1.8-0.2-2.2,1.2c-1.1,3.7,0.2,5.6,4.1,5.6C74.8,93.6,76.1,93.6,77.7,93.6z
			 M93,88.8c0,5.1,0.1,10.1,0,15.2c0,1.8,0.4,2.4,2.3,2.3c4.8-0.2,9.6-0.1,14.3-0.1c0.9,0,2,0.3,2.6-0.9c1.5-3.1-0.4-6.4-3.8-6.4
			c-1.3,0-2.6-0.2-3.8,0.1c-3.1,0.6-3.4-0.9-3.4-3.5c0.1-7.4-0.1-14.9,0.1-22.3c0.1-3.6-2.4-2.5-4-2.4c-1.7,0.1-4.5-1.6-4.4,2.4
			C93.1,78.4,93,83.6,93,88.8z M44.9,88.8c0-5-0.3-10.1,0.1-15.1c0.2-3.6-2-3-4-2.9c-1.9,0.1-4.6-1.3-4.5,2.8
			c0.2,9.9,0.1,19.9,0,29.8c0,2.4,0.7,3.5,3,2.8c1.9-0.6,5.5,2.2,5.4-2.7C44.8,98.6,44.9,93.7,44.9,88.8z M69,131.5
			c-3.4,2-5.6,1.5-6.4-1.3c-0.4-1.6-0.2-3.1,1.2-4.2c1.4-1.1,3-1.4,4.7-0.4c0.8,0.5,1.8,1.4,2.4,0c0.5-1.3-0.7-2-1.8-2.3
			c-1.6-0.5-3.4-0.6-5-0.1c-3.1,1-4.3,3.4-3.9,6.5c0.3,3.1,1.8,5.2,5.2,5.4c3,0.2,5.2-0.9,6-4c0.2-0.9,1.2-2.4-0.6-2.7
			c-1.4-0.2-3.4-1.1-4.1,0.6C65.8,131.1,68.5,130.1,69,131.5z M73.3,131.1C73.3,131.1,73.3,131.1,73.3,131.1c0,0.6,0,1.1,0,1.7
			c0.1,0.8-0.6,2.2,1,2.2c1.6,0,1.1-1.3,1.1-2.2c0.1-0.8-0.1-1.7,0.2-2.5c0.3-0.9,1.1-1.1,2.1-1.1c1.1,0.1,0.9,1,0.8,1.5
			c-0.1,4,2.3,4.4,5.6,4.3c4.4-0.1,2.5-3.5,2.2-4.9c-1.3-7.4-7.1,0.1-10.3-2.7c-1.5-1.4-3.3,0.4-2.8,2.8
			C73.4,130.6,73.3,130.8,73.3,131.1z M143,129.3c0.1,1-0.4,3.6,0.6,5.3c0.8,1.3,3.7,1,5.5,0.2c1.7-0.7,2.1-2.5,1.9-4.3
			c-0.3-1.8-1-3.1-3.1-3.3c-0.8-0.1-2.2,1.1-2.6-1c-0.3-1.5,1.3-4.4-1.4-4.1c-1.8,0.2-0.4,3.1-0.8,4.8
			C143,127.3,143,127.7,143,129.3z M104,131.5c-0.3-1.3,0.8-3.8-1.5-4c-2.7-0.2-3.2-1.3-2.9-3.6c0.1-0.9,0.3-2.2-1.3-2
			c-1.5,0.1-1,1.4-1,2.3c0,2.8-0.1,5.6,0,8.4c0,0.9-0.7,2.6,1.2,2.5c1.5-0.1,0.9-1.4,1.1-2.3c0.3-1.2-0.8-3.4,1.4-3.2
			c1.5,0.1,0.7,2.1,0.9,3.2c0,0.3,0,0.6,0,0.8c0,0.7,0,1.5,0.9,1.5c1.2,0.1,1.2-0.9,1.2-1.7C104,132.8,104,132.2,104,131.5z
			 M88.1,133.4c0,1.1-0.1,2.2,0,3.3c0.1,0.9-0.4,2.2,1.2,2.1c1.2,0,1.2-1.1,1.1-1.9c-0.2-1.9,1-1.8,2.3-1.9c2.9-0.3,3.5-2.5,3.2-4.9
			c-0.5-3.3-3-2.8-5.5-2.9c-3.3-0.1-2.2,2.1-2.3,3.6C88,131.7,88.1,132.6,88.1,133.4z M44.9,131c0.2-2-0.1-3.8-3.6-3.9
			c-3.8-0.1-3.2,2.2-3,4.3c0.1,1.2-0.9,3.4,0.8,3.5c2.5,0.1,0.9-2.3,1.4-3.6c0.3-0.7,0-1.9,1.1-1.9c1.2-0.1,1,1.1,1.1,1.8
			c0.1,0.8,0,1.7,0,2.5c0,0.8,0.3,1.4,1.2,1.3c0.9,0,1.2-0.6,1.1-1.4C44.9,133,44.9,132.3,44.9,131z M144.2,44.8
			c0.3-0.1,0.9-0.3,0.9-0.5c-0.1-2.4,0.9-3.6,3.4-3.4c0.1,0,0.3-0.9,0.5-1.4c-2.4-0.5-4-1.7-4.6-4.2c-0.1-0.2-1.6,0.1-1.4,1
			c0.6,3.1-2.8,1.8-3.3,3c-1.2,3.1,3.2,0.6,3.2,2.8c0,0.6,0,1.1,0,1.7C143,44.5,143.5,44.7,144.2,44.8z M121.5,129
			c0.3-0.6,0.3-1.3-0.8-1.7c-0.9-0.3-2-0.3-2.8,0.3c-0.9,0.6-0.9,1.5-1,2.6c-0.1,1.1,2.2,1.1,0.9,2.1c-1.3,0.9-1.5,1.6-0.3,2.5
			c1.1,0.8,2.4,0.7,3.5-0.1c1-0.7,1.2-1.7,1.1-2.9C122.1,130.7,119.8,130.7,121.5,129z M109.3,130.9c0.1,3.8,2.2,4.5,4.9,4.2
			c0.7-0.1,1.5-0.2,1.5-1.1c0-1.1-0.9-0.9-1.5-0.9c-1.5,0-2.5-0.5-2.5-2.1c0-1.1,0.9-1.7,2-1.8c0.8-0.1,2.2,1,2-0.9
			c-0.1-1.4-1.4-1.1-2.3-1.1C110.5,127.2,109.4,128.8,109.3,130.9z M33.8,129.1c0.7,1.9-0.8,5.6,0.9,5.5c2.7-0.2,1.1-3.6,1.1-5.5
			c0-1.9,1.5-5.5-0.9-5.6C32.9,123.4,34.6,127.2,33.8,129.1z M108.2,131.4c-0.5-1.4,0.9-3.8-1.1-4c-2.4-0.2-1.3,2.3-1.3,3.5
			c0,1.3-1,3.7,0.9,3.9C109.3,135.2,107.6,132.6,108.2,131.4z"/>
		<path class="st7" d="M77.7,93.6c-1.6,0-2.9,0-4.2,0c-3.9,0-5.2-1.8-4.1-5.6c0.4-1.4,1.3-1.2,2.2-1.2c4.5,0,9,0,13.5,0
			c1.1,0,2.3-0.2,2.1,1.6c-0.8,8.8-5.1,15.8-12.3,17.9c-9,2.5-18-0.9-21.8-8.2c-4.3-8.1-2-19.9,4.8-24.9c6.9-5,19.3-4.2,24.8,1.8
			c1.1,1.2,3.6,2.5,1.8,4.7c-2.3,2.7-6.3,3-8.2,1c-2.9-3-7.3-3.9-10.8-2.2c-4.2,2.1-6.5,6.8-5.7,12.1c0.7,4.8,3.5,7.7,8,8.4
			C72.8,99.7,75.4,98.4,77.7,93.6z"/>
		<path class="st8" d="M93,88.8c0-5.2,0.1-10.4,0-15.6c-0.1-3.9,2.7-2.3,4.4-2.4c1.6-0.1,4.1-1.2,4,2.4c-0.2,7.4,0,14.9-0.1,22.3
			c0,2.6,0.3,4.1,3.4,3.5c1.2-0.3,2.5-0.1,3.8-0.1c3.4,0,5.3,3.3,3.8,6.4c-0.6,1.2-1.6,0.9-2.6,0.9c-4.8,0-9.6-0.1-14.3,0.1
			c-2,0.1-2.4-0.6-2.3-2.3C93.1,98.9,93,93.9,93,88.8z"/>
		<path class="st9" d="M44.9,88.8c0,4.9-0.1,9.8,0,14.7c0.1,4.9-3.5,2.1-5.4,2.7c-2.3,0.7-3.1-0.4-3-2.8c0.1-9.9,0.2-19.9,0-29.8
			c-0.1-4.1,2.6-2.6,4.5-2.8c2-0.1,4.2-0.7,4,2.9C44.6,78.7,44.9,83.8,44.9,88.8z"/>
		<path class="st10" d="M69,131.5c-0.5-1.4-3.2-0.5-2.3-2.4c0.8-1.7,2.8-0.8,4.1-0.6c1.8,0.2,0.9,1.7,0.6,2.7c-0.8,3.1-3,4.1-6,4
			c-3.4-0.2-4.9-2.3-5.2-5.4c-0.3-3.1,0.8-5.6,3.9-6.5c1.6-0.5,3.3-0.4,5,0.1c1.1,0.3,2.3,1,1.8,2.3c-0.6,1.4-1.6,0.5-2.4,0
			c-1.7-1-3.3-0.7-4.7,0.4c-1.3,1.1-1.6,2.6-1.2,4.2C63.4,133,65.6,133.5,69,131.5z"/>
		<path class="st11" d="M73.3,131.1c0-0.3,0-0.6,0-0.8c-0.5-2.4,1.2-4.2,2.8-2.8c3.2,2.9,9-4.7,10.3,2.7c0.2,1.4,2.1,4.7-2.2,4.9
			c-3.3,0.1-5.6-0.3-5.6-4.3c0-0.6,0.3-1.5-0.8-1.5c-0.9-0.1-1.8,0.2-2.1,1.1c-0.2,0.8-0.1,1.7-0.2,2.5c-0.1,0.9,0.4,2.2-1.1,2.2
			c-1.7,0-0.9-1.4-1-2.2C73.3,132.3,73.3,131.7,73.3,131.1C73.3,131.1,73.3,131.1,73.3,131.1z M84.6,130.9c-0.2-1-0.8-1.9-1.9-1.7
			c-1.3,0.1-1.7,1.2-1.7,2.4c0.1,0.9,0.6,1.6,1.5,1.5C83.8,133,84.4,132.2,84.6,130.9z"/>
		<path class="st12" d="M143,129.3c0-1.6-0.1-2.1,0-2.4c0.4-1.7-1-4.6,0.8-4.8c2.7-0.3,1.1,2.6,1.4,4.1c0.4,2,1.7,0.9,2.6,1
			c2.1,0.2,2.9,1.6,3.1,3.3c0.3,1.8-0.1,3.6-1.9,4.3c-1.8,0.7-4.7,1-5.5-0.2C142.6,133,143.1,130.3,143,129.3z M148.8,131.5
			c0-1.2-0.3-2.2-1.7-2.4c-1.1-0.1-1.7,0.7-1.8,1.8c-0.1,1,0.3,1.9,1.5,2.1C148,133.3,148.5,132.6,148.8,131.5z"/>
		<path class="st13" d="M104,131.5c0,0.8,0,1.3,0,1.9c0,0.8,0.1,1.8-1.2,1.7c-0.9,0-0.9-0.8-0.9-1.5c0-0.3,0-0.6,0-0.8
			c-0.2-1.1,0.7-3.1-0.9-3.2c-2.1-0.1-1.1,2-1.4,3.2c-0.2,0.9,0.4,2.2-1.1,2.3c-1.9,0.1-1.2-1.5-1.2-2.5c-0.1-2.8-0.1-5.6,0-8.4
			c0-0.9-0.5-2.2,1-2.3c1.6-0.1,1.4,1.2,1.3,2c-0.3,2.3,0.2,3.4,2.9,3.6C104.8,127.7,103.7,130.2,104,131.5z"/>
		<path class="st14" d="M88.1,133.4c0-0.8-0.1-1.7,0-2.5c0.2-1.6-1-3.8,2.3-3.6c2.5,0.1,5-0.4,5.5,2.9c0.4,2.4-0.3,4.6-3.2,4.9
			c-1.4,0.2-2.5,0-2.3,1.9c0.1,0.8,0.1,1.8-1.1,1.9c-1.6,0-1.1-1.3-1.2-2.1C88,135.7,88.1,134.5,88.1,133.4z M93.8,131.1
			c-0.1-1.1-0.7-1.9-1.8-1.9c-1.2,0-1.7,1-1.7,2c-0.1,1,0.3,2,1.6,1.9C93,133,93.6,132.1,93.8,131.1z"/>
		<path class="st15" d="M132.7,133.1c1.4-3,1.8-6.7,6.9-5.9c2.8,0.4,2.4,1.9,2.1,3.4c-0.3,1.6,1.6,4.2-2.2,4.7
			c-2.4,0.3-4.2-2.1-6.5-0.8C132.8,134,132.8,133.5,132.7,133.1z M138,129.2c-1.1,0.1-1.8,0.7-1.9,1.8c-0.1,1,0.2,2,1.5,2.1
			c1.1,0.1,1.8-0.6,1.9-1.7C139.6,130.4,139.1,129.6,138,129.2z"/>
		<path class="st15" d="M44.9,131c0,1.3,0,2,0,2.7c0,0.8-0.3,1.4-1.1,1.4c-0.9,0-1.2-0.6-1.2-1.3c0-0.8,0-1.7,0-2.5
			c-0.1-0.8,0.2-1.9-1.1-1.8c-1.1,0.1-0.8,1.2-1.1,1.9c-0.5,1.2,1.1,3.7-1.4,3.6c-1.8-0.1-0.8-2.3-0.8-3.5c-0.2-2.1-0.7-4.4,3-4.3
			C44.8,127.2,45.1,128.9,44.9,131z"/>
		<path class="st16" d="M50.8,129.1c-2.6,0.3-1.8,2.3-2,3.8c-0.1,0.9,0.3,2.2-1.2,2.2c-1.5-0.1-0.9-1.4-1-2.3
			c-0.5-3-0.5-5.9,0.1-8.8c0.2-1.2,0.7-2.1,2-2.3c0.7-0.1,1.5-0.2,1.9,0.5c0.7,1.4-0.8,1.4-1.3,2.1c-1.7,2.3,1.9,3,1.5,4.9
			C50.7,129.2,50.8,129.1,50.8,129.1z"/>
		<path class="st12" d="M50.8,129.1c0,0-0.1,0.1-0.1,0.1c1.6-1.4,3.2-2.6,5.5-1.9c1.7,0.5,2.6,1.6,2.8,3.3c0.2,1.6-0.1,3.2-1.7,4
			c-1.5,0.8-3.1,1.2-4.6-0.3c-0.1-0.1,0.3-0.6,0.5-0.9c0.5-0.1,1-0.3,1.5-0.4c1.3-0.1,2-0.9,1.9-2.1c-0.1-1.1-0.8-1.8-1.9-1.6
			c-1.3,0.2-1.7,1.2-1.6,2.5c0,0.5,0,1,0,1.6c-1,1.4-1.7,0.6-2-0.4C50.9,131.6,50.9,130.3,50.8,129.1z"/>
		<path class="st13" d="M144.2,44.8c-0.7-0.1-1.2-0.3-1.2-1c0-0.6,0-1.1,0-1.7c0-2.2-4.4,0.3-3.2-2.8c0.5-1.3,3.9,0,3.3-3
			c-0.2-0.8,1.3-1.2,1.4-1c0.6,2.5,2.3,3.7,4.6,4.2c-0.2,0.5-0.4,1.4-0.5,1.4c-2.5-0.2-3.5,1-3.4,3.4
			C145.2,44.5,144.5,44.7,144.2,44.8z"/>
		<path class="st16" d="M121.5,129c-1.7,1.7,0.7,1.8,0.7,2.8c0.1,1.2-0.1,2.3-1.1,2.9c-1.1,0.7-2.4,0.9-3.5,0.1
			c-1.2-0.9-1-1.6,0.3-2.5c1.3-1-1-1-0.9-2.1c0.1-1,0.1-1.9,1-2.6c0.9-0.6,1.9-0.5,2.8-0.3C121.7,127.7,121.8,128.4,121.5,129z"/>
		<path class="st12" d="M109.3,130.9c0.1-2.1,1.2-3.7,4-3.6c0.9,0,2.2-0.3,2.3,1.1c0.2,1.9-1.2,0.8-2,0.9c-1.1,0.1-2,0.6-2,1.8
			c0,1.6,1,2.1,2.5,2.1c0.6,0,1.5-0.2,1.5,0.9c0,0.9-0.8,1.1-1.5,1.1C111.5,135.3,109.5,134.6,109.3,130.9z"/>
		<path class="st17" d="M132.7,133.1c0.1,0.5,0.2,0.9,0.3,1.4c-5.3,1.1-5.3,1.1-5.3-4c0-2,0-3.9,0-5.9c0-0.7,0.1-1.5,1.1-1.4
			c0.9,0,1.1,0.7,1.1,1.5c0,1.8,0.1,3.7-0.1,5.4C129.2,132.6,130.6,133.1,132.7,133.1z"/>
		<path class="st17" d="M33.8,129.1c0.8-1.9-1-5.7,1.1-5.7c2.5,0.1,0.9,3.7,0.9,5.6c0,1.9,1.6,5.3-1.1,5.5
			C33,134.7,34.5,131.1,33.8,129.1z"/>
		<path class="st16" d="M108.2,131.4c-0.7,1.2,1,3.7-1.5,3.5c-1.9-0.2-0.9-2.6-0.9-3.9c0-1.2-1.2-3.7,1.3-3.5
			C109.1,127.6,107.7,130.1,108.2,131.4z"/>
		<path class="st18" d="M84.6,130.9c-0.1,1.2-0.8,2.1-2,2.2c-1,0.1-1.5-0.7-1.5-1.5c-0.1-1.2,0.3-2.3,1.7-2.4
			C83.8,129.1,84.4,129.9,84.6,130.9z"/>
		<path class="st18" d="M148.8,131.5c-0.3,1-0.8,1.8-2,1.5c-1.1-0.2-1.5-1.1-1.5-2.1c0.1-1.1,0.7-1.9,1.8-1.8
			C148.5,129.3,148.8,130.4,148.8,131.5z"/>
		<path class="st18" d="M93.8,131.1c-0.3,1-0.8,1.9-1.9,1.9c-1.3,0.1-1.7-0.9-1.6-1.9c0.1-1,0.5-2,1.7-2
			C93.2,129.2,93.7,130,93.8,131.1z"/>
		<path class="st18" d="M138,129.2c1.1,0.4,1.6,1.1,1.5,2.2c-0.1,1.1-0.8,1.8-1.9,1.7c-1.2-0.1-1.5-1.1-1.5-2.1
			C136.2,129.9,136.9,129.3,138,129.2z"/>
		<path class="st18" d="M53.2,133.3c0-0.5,0-1.1,0-1.6c-0.1-1.2,0.3-2.2,1.6-2.5c1.1-0.2,1.9,0.5,1.9,1.6c0.1,1.2-0.6,2-1.9,2.1
			c-0.5,0-1,0.3-1.5,0.4C53.3,133.4,53.2,133.3,53.2,133.3z"/>
	</g>
</g>
<g>
	<path class="st19" d="M182,162.5c0,6.3,0,12.6,0,18.9c0,0.6-0.1,0.7-0.7,0.7c-60.9,0-121.7,0-182.6,0c-0.6,0-0.8-0.1-0.8-0.8
		c0-60.9,0-121.7,0-182.6c0-0.6,0.1-0.7,0.7-0.7c6.6,0,13.3,0,19.9,0c-0.1,0.2-0.3,0.2-0.4,0.2C11.4-0.4,6.1,3.1,2.3,8.7
		c-2.3,3.4-4.1,7.1-4.1,11.2c-0.1,46.7,0,93.3,0,140c0,0.4,0,0.8,0.1,1.2c1.4,7.5,5.2,13.3,11.7,17.4c2.9,1.8,6,3.3,9.4,3.3
		c47.2,0,94.5,0,141.7,0c0.4,0,0.8,0,1.2-0.1c8.5-1.9,14.6-6.9,18.2-14.8C181.1,165.5,181.4,163.9,182,162.5z"/>
	<path class="st20" d="M182,162.5c-0.6,1.4-0.9,3-1.6,4.5c-3.6,8-9.7,12.9-18.2,14.8c-0.4,0.1-0.8,0.1-1.2,0.1
		c-47.2,0-94.5,0-141.7,0c-3.4,0-6.5-1.5-9.4-3.3c-6.5-4-10.3-9.9-11.7-17.4c-0.1-0.4-0.1-0.8-0.1-1.2c0-46.7,0-93.3,0-140
		c0-4.1,1.7-7.9,4.1-11.2c3.9-5.6,9.2-9.1,15.9-10.5c0.2,0,0.3,0,0.4-0.2c47.8,0,95.5,0,143.3,0c0.1,0.2,0.3,0.2,0.5,0.2
		c8.1,1.8,14,6.4,17.7,13.9c0.9,1.8,1.3,3.7,2,5.5C182,65.8,182,114.2,182,162.5z M90.2-1.4c-22.5,0-45,0-67.4,0
		c-1.1,0-2.2,0.1-3.3,0.3C7.3,0.8-1.2,10.9-1.2,23c0,44.6,0,89.2,0,133.9c0,1.7,0.2,3.4,0.5,5.1c2.5,11.6,12.3,19.4,24.2,19.4
		c44.1,0,88.2,0,132.2,0c1,0,2,0,3-0.1c12.9-0.7,23-11.3,23-24.3c0-44.6,0-89.2,0-133.8c0-1.5-0.1-3-0.3-4.5
		c-1.7-11.4-12.1-20.2-23.5-20.2C135.2-1.4,112.7-1.4,90.2-1.4z"/>
	<path class="st19" d="M182,17.5c-0.6-1.8-1.1-3.7-2-5.5c-3.7-7.4-9.6-12-17.7-13.9c-0.2,0-0.4,0-0.5-0.2c6.5,0,13,0,19.5,0
		c0.6,0,0.7,0.1,0.7,0.7C182,5,182,11.3,182,17.5z"/>
	<path class="st21" d="M90.2-1.4c22.5,0,45,0,67.5,0c11.5,0,21.8,8.9,23.5,20.2c0.2,1.5,0.3,3,0.3,4.5c0,44.6,0,89.2,0,133.8
		c0,12.9-10.1,23.6-23,24.3c-1,0.1-2,0.1-3,0.1c-44.1,0-88.2,0-132.2,0c-11.9,0-21.6-7.8-24.2-19.4c-0.4-1.7-0.5-3.4-0.5-5.1
		c0-44.6,0-89.2,0-133.9c0-12.2,8.5-22.2,20.6-24.2c1.1-0.2,2.2-0.3,3.3-0.3C45.2-1.4,67.7-1.4,90.2-1.4z M155.5,147.6
		c0,0,0-0.1,0-0.1c4.7,0,9.5,0,14.2,0c0.4,0,0.9,0.2,1.1-0.3c0.2-0.5-0.2-0.8-0.7-0.9c-0.1,0-0.1-0.2-0.2-0.2
		c-1.1-1.8-2.4-3.5-3.4-5.4c-0.7-1.4-1.5-2.8-2.4-4.1c-0.9-1.3-2-2.5-2.8-3.8c-4.2-6.5-8.4-13-12.6-19.5c-0.6-1-1.2-2.3-2.1-2.8
		c-1-0.6-2.5-0.2-3.7-0.1c-6.9,0.4-13.7,1-20.6,2c-5.5,0.8-10.9,2.1-16.3,3.6c-4.9,1.3-9.7,3-14.5,4.8c-6.4,2.4-12.6,5.2-18.6,8.5
		c-5.4,2.9-10.6,6.1-15.4,10c-2.9,2.4-6,4.5-8.5,7.3c-0.3,0.3-0.8,0.6-0.6,1c0.2,0.4,0.8,0.4,1.2,0.4c1.5,0,2.9,0.1,4.4,0.1
		c11,0,21.9,0,32.9,0c18.3,0,36.5,0.1,54.8-0.1C146.3,147.5,150.9,147.6,155.5,147.6z M145.3,107.6c0.2-0.7-0.1-1.1-0.4-1.5
		c-4.8-7.3-9.5-14.6-14.3-22c-5.1-7.9-10.1-15.8-15.1-23.7c-8.4-13.1-17-26-25.2-39.3c-0.3-0.4-0.6-0.8-0.9-1.2
		c-0.4-0.5-0.6-0.3-0.9,0.1c-1.8,2.4-3.5,5-5.2,7.6c-7.2,10.9-14.3,21.8-21.5,32.7c-2.5,3.8-5.1,7.5-7.5,11.3
		c-0.9,1.4-0.8,1.6,0.8,1.9c1.6,0.2,3.2,0.3,4.8,0.7c7.7,1.6,15.5,3.1,23,5.7c3.1,1.1,6.3,1.8,9.3,2.9c8.2,2.8,16.4,5.8,24.3,9.3
		c7.4,3.3,14.6,6.8,21.6,10.7C140.6,104.2,142.9,105.9,145.3,107.6z M102.3,100.7c1,0.1,1.9,0,2.8-0.1c0.3,0,0.8,0.1,0.9-0.3
		c0.1-0.3-0.3-0.5-0.6-0.8c-1.5-1.4-3.3-2.2-5-3.2c-6.4-4-13.1-7.2-20.1-9.7c-9.4-3.4-19.1-5.8-28.9-8.2c-0.8-0.2-1.3,0-1.7,0.7
		c-2.1,3.7-4.5,7.2-6.8,10.8c-5.8,9.3-11.9,18.4-17.6,27.7c-2.5,4-5,8-7.6,11.9c-1.1,1.7-2.1,3.6-3.4,5.2c-0.2,0.3-0.6,0.8-0.2,1.1
		c0.4,0.3,0.7-0.3,1-0.5c3.7-3.5,7.5-6.7,11.8-9.5c1.8-1.2,3.5-2.5,5.3-3.6c2.8-1.7,5.6-3.3,8.6-4.8c4.4-2.2,8.9-4,13.4-6
		c4.1-1.8,8.4-2.8,12.6-4.4c2.4-0.9,5.1-1.2,7.6-1.9c7.2-1.9,14.6-3,22.1-3.7C98.4,101.1,100.4,100.7,102.3,100.7z"/>
	<path class="st22" d="M155.5,147.6c-4.6,0-9.3,0-13.9,0c-18.3,0.2-36.5,0.1-54.8,0.1c-11,0-21.9,0-32.9,0c-1.5,0-2.9,0-4.4-0.1
		c-0.4,0-1,0-1.2-0.4c-0.2-0.4,0.3-0.7,0.6-1c2.5-2.8,5.6-4.9,8.5-7.3c4.8-3.9,10-7,15.4-10c6-3.3,12.2-6.1,18.6-8.5
		c4.8-1.8,9.6-3.4,14.5-4.8c5.4-1.5,10.8-2.7,16.3-3.6c6.8-1,13.7-1.6,20.6-2c1.2-0.1,2.7-0.5,3.7,0.1c0.9,0.5,1.4,1.8,2.1,2.8
		c4.2,6.5,8.4,13,12.6,19.5c0.9,1.3,2,2.5,2.8,3.8c0.9,1.3,1.7,2.7,2.4,4.1c1,1.9,2.3,3.6,3.4,5.4c0.1,0.1,0.1,0.2,0.2,0.2
		c0.5,0.2,0.9,0.4,0.7,0.9c-0.2,0.5-0.7,0.3-1.1,0.3c-4.7,0-9.5,0-14.2,0C155.5,147.5,155.5,147.5,155.5,147.6z"/>
	<path class="st23" d="M145.3,107.6c-2.4-1.7-4.7-3.4-7.2-4.8c-7-4-14.2-7.5-21.6-10.7c-7.9-3.5-16.1-6.5-24.3-9.3
		c-3.1-1.1-6.3-1.8-9.3-2.9c-7.5-2.6-15.2-4.1-23-5.7c-1.6-0.3-3.2-0.4-4.8-0.7c-1.6-0.2-1.7-0.5-0.8-1.9c2.4-3.8,5-7.5,7.5-11.3
		c7.2-10.9,14.3-21.8,21.5-32.7c1.7-2.6,3.3-5.1,5.2-7.6c0.3-0.4,0.5-0.6,0.9-0.1c0.3,0.4,0.7,0.8,0.9,1.2
		c8.1,13.2,16.8,26.2,25.2,39.3c5.1,7.9,10,15.8,15.1,23.7c4.7,7.3,9.5,14.7,14.3,22C145.2,106.5,145.5,106.9,145.3,107.6z"/>
	<path class="st24" d="M102.3,100.7c-2-0.1-4,0.4-6,0.6c-7.4,0.6-14.8,1.7-22.1,3.7c-2.5,0.7-5.2,1-7.6,1.9
		c-4.2,1.6-8.5,2.6-12.6,4.4c-4.5,2-9,3.8-13.4,6c-2.9,1.5-5.8,3.1-8.6,4.8c-1.8,1.1-3.5,2.5-5.3,3.6c-4.3,2.7-8.1,6-11.8,9.5
		c-0.3,0.3-0.6,0.8-1,0.5c-0.4-0.3,0-0.8,0.2-1.1c1.3-1.6,2.2-3.5,3.4-5.2c2.6-3.9,5.1-7.9,7.6-11.9c5.7-9.3,11.8-18.4,17.6-27.7
		c2.3-3.6,4.7-7.1,6.8-10.8c0.4-0.8,0.9-0.9,1.7-0.7c9.7,2.3,19.4,4.8,28.9,8.2c7.1,2.6,13.8,5.7,20.1,9.7c1.7,1.1,3.6,1.9,5,3.2
		c0.3,0.2,0.6,0.4,0.6,0.8c-0.1,0.4-0.6,0.3-0.9,0.3C104.3,100.8,103.3,100.8,102.3,100.7z"/>
</g>
</svg>
