<?xml version="1.0" encoding="utf-8"?>
<!-- Generator: Adobe Illustrator 19.2.0, SVG Export Plug-In . SVG Version: 6.00 Build 0)  -->
<svg version="1.1" id="Layer_1" xmlns="http://www.w3.org/2000/svg" xmlns:xlink="http://www.w3.org/1999/xlink" x="0px" y="0px"
	 viewBox="0 0 180 180" style="enable-background:new 0 0 180 180;" xml:space="preserve">
<style type="text/css">
	.st0{stroke:#FFFFFF;stroke-width:4;stroke-miterlimit:10;}
	.st1{display:none;}
	.st2{display:inline;}
	.st3{opacity:0.29;}
	.st4{fill:#FFFFFF;}
</style>
<g transform="translate(0.000000,180.000000) scale(0.100000,-0.100000)">
	<path class="st0" d="M1008,1152c-120-76-224-144-231-152c-8-8-53-107-100-220C544,465,556,496,577,504c9,4,115,69,235,144l217,137
		l101,240c56,132,104,246,107,253c3,6,1,12-3,12C1229,1289,1127,1227,1008,1152z M958,957c30-28,29-77-3-107c-35-33-81-31-112,4
		c-27,32-29,62-7,94C867,993,914,997,958,957z"/>
	<g class="st1">
		<path class="st2" d="M874,1623c-102-351-154-517-167-530c-8-9-142-53-297-99c-155-45-284-85-288-88c-3-3-3-9,1-12
			c10-10,502-152,505-145c1,3,28,67,60,140l57,135l145,91c79,51,146,97,148,103c2,7-22,99-53,204c-75,256-75,258-85,258
			C895,1680,883,1654,874,1623z"/>
		<path class="st2" d="M1115,906l-60-144l-147-92c-82-51-148-95-148-99c0-13,129-443,134-449c3-3,9-3,12,0c3,4,43,133,88,288
			c46,155,90,289,99,297c8,9,142,53,297,99c155,45,284,85,288,88c3,3,3,9,0,12c-8,8-469,144-488,144C1180,1050,1155,1000,1115,906z"
			/>
	</g>
	<g>
		<path d="M874,1623c-102-351-154-517-167-530c-8-9-142-53-297-99c-155-45-284-85-288-88c-3-3-3-9,1-12c10-10,502-152,505-145
			c1,3,28,67,60,140l57,135l145,91c79,51,146,97,148,103c2,7-22,99-53,204c-75,256-75,258-85,258C895,1680,883,1654,874,1623z"/>
		<path d="M1115,906l-60-144l-147-92c-82-51-148-95-148-99c0-13,129-443,134-449c3-3,9-3,12,0c3,4,43,133,88,288
			c46,155,90,289,99,297c8,9,142,53,297,99c155,45,284,85,288,88c3,3,3,9,0,12c-8,8-469,144-488,144C1180,1050,1155,1000,1115,906z"
			/>
	</g>
	<g class="st1">
		<path class="st2" d="M460,1480c0-33-4-60-9-60s-28,7-51,15s-47,15-53,15c-9,0-2-429,8-438c2-3,16-1,31,2l27,7l-5,174l-5,174l31-13
			l31-12l3-152l3-152l27,6c15,4,30,8,33,10s4,64,1,138l-5,135l94-30c106-32,129-35,129-15c0,8,2,21,5,28c4,11-23,23-109,49
			c-112,33-114,34-118,65l-4,32l46-14c25-8,81-25,125-38c43-14,80-24,82-22c2,1,5,16,9,32l6,30l-159,47c-87,26-161,47-165,47
			C463,1540,460,1513,460,1480z"/>
		<path class="st2" d="M1157,1492l-149-46l6-30c4-16,7-31,9-32c2-2,58,14,125,35l122,39v-32v-31l-115-34c-87-26-114-38-110-49
			c3-7,5-20,5-28c0-20,23-17,129,15l93,30l-3-136l-4-136l27-8c15-4,29-4,32-1s6,71,6,152v147l33,10l34,10l-5-173l-5-173l27-7
			c15-3,29-5,31-2c10,9,17,438,8,438c-6,0-30-7-53-15s-46-15-51-15s-9,27-9,60c0,51-3,60-17,59C1313,1538,1238,1517,1157,1492z"/>
		<path class="st2" d="M347,638c-9-206-9-308,2-308c5,0,28,7,51,15s46,15,51,15s9-20,9-45s3-45,8-45c4-1,78,21,165,47l158,48l-7,30
			c-3,16-7,31-8,32s-38-9-81-23c-183-56-173-54-168-33c4,13,35,28,119,56l115,38l-7,30c-3,16-7,31-8,32c-2,2-49-13-106-32
			s-106-35-108-35s-2,63-1,139c2,77,2,141-1,144c-3,2-17,7-32,11l-26,6l-4-159c-1-88-5-162-8-164c-3-3-17-8-31-12l-25-6l4,177
			c5,184,3,193-39,194C355,790,352,768,347,638z"/>
		<path class="st2" d="M1401,781c-11-7-13-43-9-185c2-97,1-176-3-176s-19,4-33,10l-26,10v160v160l-27-6c-16-4-31-9-35-11
			s-5-67-1-143c3-77,4-140,2-140c-3,0-52,16-109,35s-104,34-106,32c-1-1-5-16-8-32l-7-30l116-38c75-25,115-43,115-53
			c0-20-11-18-135,21c-60,19-110,33-111,32s-5-16-8-32l-7-31l155-47c85-26,159-47,165-47s11,20,11,45s4,45,9,45s28-7,51-15
			s46-15,51-15c11,0,11,102,2,308c-5,130-8,152-22,152C1422,790,1409,786,1401,781z"/>
	</g>
	<g class="st3">
		<path class="st0" d="M460,1480c0-33-4-60-9-60s-28,7-51,15s-47,15-53,15c-9,0-2-429,8-438c2-3,16-1,31,2l27,7l-5,174l-5,174l31-13
			l31-12l3-152l3-152l27,6c15,4,30,8,33,10s4,64,1,138l-5,135l94-30c106-32,129-35,129-15c0,8,2,21,5,28c4,11-23,23-109,49
			c-112,33-114,34-118,65l-4,32l46-14c25-8,81-25,125-38c43-14,80-24,82-22c2,1,5,16,9,32l6,30l-159,47c-87,26-161,47-165,47
			C463,1540,460,1513,460,1480z"/>
		<path class="st0" d="M1157,1492l-149-46l6-30c4-16,7-31,9-32c2-2,58,14,125,35l122,39v-32v-31l-115-34c-87-26-114-38-110-49
			c3-7,5-20,5-28c0-20,23-17,129,15l93,30l-3-136l-4-136l27-8c15-4,29-4,32-1s6,71,6,152v147l33,10l34,10l-5-173l-5-173l27-7
			c15-3,29-5,31-2c10,9,17,438,8,438c-6,0-30-7-53-15s-46-15-51-15s-9,27-9,60c0,51-3,60-17,59C1313,1538,1238,1517,1157,1492z"/>
		<path class="st0" d="M347,638c-9-206-9-308,2-308c5,0,28,7,51,15s46,15,51,15s9-20,9-45s3-45,8-45c4-1,78,21,165,47l158,48l-7,30
			c-3,16-7,31-8,32s-38-9-81-23c-183-56-173-54-168-33c4,13,35,28,119,56l115,38l-7,30c-3,16-7,31-8,32c-2,2-49-13-106-32
			s-106-35-108-35s-2,63-1,139c2,77,2,141-1,144c-3,2-17,7-32,11l-26,6l-4-159c-1-88-5-162-8-164c-3-3-17-8-31-12l-25-6l4,177
			c5,184,3,193-39,194C355,790,352,768,347,638z"/>
		<path class="st0" d="M1401,781c-11-7-13-43-9-185c2-97,1-176-3-176s-19,4-33,10l-26,10v160v160l-27-6c-16-4-31-9-35-11
			s-5-67-1-143c3-77,4-140,2-140c-3,0-52,16-109,35s-104,34-106,32c-1-1-5-16-8-32l-7-30l116-38c75-25,115-43,115-53
			c0-20-11-18-135,21c-60,19-110,33-111,32s-5-16-8-32l-7-31l155-47c85-26,159-47,165-47s11,20,11,45s4,45,9,45s28-7,51-15
			s46-15,51-15c11,0,11,102,2,308c-5,130-8,152-22,152C1422,790,1409,786,1401,781z"/>
	</g>
</g>
<polygon class="st4" points="74.5,77.6 103.8,58.2 119.8,55.2 79.2,81.5 59.5,127 62.8,105.1 "/>
<polygon class="st4" points="100.9,99.8 119.8,55.2 119,75 105.5,103.8 76,122.9 59.5,127 "/>
</svg>
